<svg width="190" height="89" viewBox="0 0 190 89" fill="none" xmlns="http://www.w3.org/2000/svg">
<g filter="url(#filter0_dd_33_1276)">
<rect x="15" y="10" width="160" height="59" rx="13" fill="#449AFF"/>
<path d="M76.22 32.268C76.1133 32.4493 76.0013 32.5827 75.884 32.668C75.7667 32.7533 75.6173 32.796 75.436 32.796C75.244 32.796 75.0253 32.7107 74.78 32.54C74.5347 32.3587 74.2253 32.1613 73.852 31.948C73.4893 31.724 73.052 31.5267 72.54 31.356C72.028 31.1747 71.4147 31.084 70.7 31.084C70.028 31.084 69.436 31.1747 68.924 31.356C68.4227 31.5267 68.0013 31.7667 67.66 32.076C67.3187 32.3747 67.0573 32.732 66.876 33.148C66.7053 33.5533 66.62 33.996 66.62 34.476C66.62 35.0947 66.7747 35.6067 67.084 36.012C67.404 36.4173 67.82 36.764 68.332 37.052C68.844 37.34 69.4253 37.5907 70.076 37.804C70.7267 38.0173 71.3933 38.2413 72.076 38.476C72.7587 38.7 73.4253 38.9613 74.076 39.26C74.7267 39.5587 75.308 39.9373 75.82 40.396C76.332 40.844 76.7427 41.3987 77.052 42.06C77.372 42.7107 77.532 43.5107 77.532 44.46C77.532 45.4733 77.356 46.4227 77.004 47.308C76.6627 48.1933 76.1613 48.9667 75.5 49.628C74.8387 50.2893 74.0227 50.812 73.052 51.196C72.092 51.5693 70.9987 51.756 69.772 51.756C69.036 51.756 68.3213 51.6813 67.628 51.532C66.9347 51.3933 66.2787 51.196 65.66 50.94C65.0413 50.6733 64.46 50.3587 63.916 49.996C63.3827 49.6227 62.9027 49.2067 62.476 48.748L63.452 47.116C63.548 46.988 63.66 46.8813 63.788 46.796C63.9267 46.7107 64.0813 46.668 64.252 46.668C64.476 46.668 64.732 46.7853 65.02 47.02C65.3187 47.2547 65.6813 47.516 66.108 47.804C66.5453 48.0813 67.0627 48.3373 67.66 48.572C68.268 48.8067 69.004 48.924 69.868 48.924C70.572 48.924 71.2013 48.8333 71.756 48.652C72.3107 48.46 72.7747 48.1933 73.148 47.852C73.532 47.5 73.8253 47.0787 74.028 46.588C74.2307 46.0973 74.332 45.5533 74.332 44.956C74.332 44.284 74.1773 43.7347 73.868 43.308C73.5587 42.8813 73.148 42.524 72.636 42.236C72.124 41.948 71.5427 41.7027 70.892 41.5C70.2413 41.2973 69.5747 41.0893 68.892 40.876C68.2093 40.652 67.5427 40.396 66.892 40.108C66.2413 39.82 65.66 39.4467 65.148 38.988C64.636 38.5187 64.2253 37.9373 63.916 37.244C63.6067 36.54 63.452 35.676 63.452 34.652C63.452 33.8307 63.612 33.036 63.932 32.268C64.252 31.5 64.716 30.8227 65.324 30.236C65.9427 29.6387 66.7 29.164 67.596 28.812C68.492 28.4493 69.516 28.268 70.668 28.268C71.9587 28.268 73.1427 28.476 74.22 28.892C75.308 29.2973 76.252 29.884 77.052 30.652L76.22 32.268ZM92.3965 38.284C92.3005 38.4013 92.2045 38.4973 92.1085 38.572C92.0232 38.636 91.8952 38.668 91.7245 38.668C91.5538 38.668 91.3725 38.604 91.1805 38.476C90.9992 38.3373 90.7645 38.1933 90.4765 38.044C90.1992 37.884 89.8578 37.74 89.4525 37.612C89.0578 37.4733 88.5672 37.404 87.9805 37.404C87.2125 37.404 86.5352 37.5427 85.9485 37.82C85.3618 38.0973 84.8712 38.492 84.4765 39.004C84.0925 39.516 83.7992 40.14 83.5965 40.876C83.3938 41.612 83.2925 42.4387 83.2925 43.356C83.2925 44.3053 83.3992 45.1533 83.6125 45.9C83.8258 46.636 84.1298 47.26 84.5245 47.772C84.9192 48.2733 85.3992 48.6573 85.9645 48.924C86.5298 49.18 87.1592 49.308 87.8525 49.308C88.5245 49.308 89.0792 49.228 89.5165 49.068C89.9538 48.8973 90.3165 48.716 90.6045 48.524C90.8925 48.332 91.1325 48.156 91.3245 47.996C91.5165 47.8253 91.7138 47.74 91.9165 47.74C92.1725 47.74 92.3698 47.836 92.5085 48.028L93.4045 49.18C93.0312 49.6387 92.6098 50.028 92.1405 50.348C91.6818 50.668 91.1912 50.9293 90.6685 51.132C90.1458 51.3347 89.5965 51.484 89.0205 51.58C88.4552 51.676 87.8792 51.724 87.2925 51.724C86.2792 51.724 85.3298 51.5373 84.4445 51.164C83.5698 50.7907 82.8072 50.2467 82.1565 49.532C81.5165 48.8173 81.0098 47.9427 80.6365 46.908C80.2632 45.8627 80.0765 44.6787 80.0765 43.356C80.0765 42.1507 80.2418 41.036 80.5725 40.012C80.9138 38.988 81.4098 38.108 82.0605 37.372C82.7218 36.6253 83.5325 36.044 84.4925 35.628C85.4525 35.2013 86.5512 34.988 87.7885 34.988C88.9512 34.988 89.9752 35.1747 90.8605 35.548C91.7458 35.9213 92.5352 36.4493 93.2285 37.132L92.3965 38.284ZM105.053 44.284C103.784 44.3267 102.706 44.428 101.821 44.588C100.936 44.7373 100.216 44.94 99.661 45.196C99.1063 45.452 98.7063 45.756 98.461 46.108C98.2157 46.4493 98.093 46.8333 98.093 47.26C98.093 47.6653 98.157 48.0173 98.285 48.316C98.4237 48.604 98.605 48.844 98.829 49.036C99.0637 49.2173 99.3357 49.3507 99.645 49.436C99.9543 49.5213 100.29 49.564 100.653 49.564C101.133 49.564 101.57 49.516 101.965 49.42C102.37 49.324 102.749 49.1907 103.101 49.02C103.453 48.8387 103.789 48.62 104.109 48.364C104.429 48.108 104.744 47.8147 105.053 47.484V44.284ZM95.901 37.516C96.8077 36.652 97.789 36.0067 98.845 35.58C99.9117 35.1533 101.08 34.94 102.349 34.94C103.277 34.94 104.098 35.0947 104.813 35.404C105.528 35.7027 106.13 36.124 106.621 36.668C107.112 37.212 107.48 37.8627 107.725 38.62C107.981 39.3773 108.109 40.2147 108.109 41.132V51.5H106.717C106.408 51.5 106.173 51.452 106.013 51.356C105.853 51.2493 105.725 51.0573 105.629 50.78L105.293 49.356C104.877 49.74 104.466 50.0813 104.061 50.38C103.656 50.668 103.229 50.9187 102.781 51.132C102.344 51.3347 101.874 51.4893 101.373 51.596C100.872 51.7027 100.317 51.756 99.709 51.756C99.069 51.756 98.4663 51.6707 97.901 51.5C97.3463 51.3187 96.861 51.0467 96.445 50.684C96.029 50.3213 95.6983 49.868 95.453 49.324C95.2183 48.78 95.101 48.1453 95.101 47.42C95.101 46.78 95.2717 46.1667 95.613 45.58C95.965 44.9827 96.5303 44.4493 97.309 43.98C98.0983 43.5107 99.1223 43.1267 100.381 42.828C101.65 42.5293 103.208 42.3587 105.053 42.316V41.132C105.053 39.9053 104.792 38.988 104.269 38.38C103.746 37.772 102.978 37.468 101.965 37.468C101.282 37.468 100.706 37.5533 100.237 37.724C99.7783 37.8947 99.3783 38.0867 99.037 38.3C98.7063 38.5027 98.413 38.6893 98.157 38.86C97.9117 39.0307 97.6557 39.116 97.389 39.116C97.1757 39.116 96.989 39.0573 96.829 38.94C96.6797 38.8227 96.557 38.684 96.461 38.524L95.901 37.516ZM115.214 37.5C115.566 37.1267 115.934 36.7853 116.318 36.476C116.702 36.1667 117.107 35.9053 117.534 35.692C117.971 35.468 118.435 35.2973 118.926 35.18C119.427 35.052 119.96 34.988 120.526 34.988C121.422 34.988 122.206 35.1373 122.878 35.436C123.56 35.7347 124.131 36.156 124.59 36.7C125.048 37.2333 125.395 37.8787 125.63 38.636C125.864 39.3933 125.982 40.2307 125.982 41.148V51.5H122.846V41.148C122.846 39.9853 122.579 39.084 122.046 38.444C121.512 37.7933 120.696 37.468 119.598 37.468C118.798 37.468 118.046 37.66 117.342 38.044C116.648 38.4173 116.003 38.9293 115.406 39.58V51.5H112.286V35.244H114.158C114.595 35.244 114.867 35.452 114.974 35.868L115.214 37.5Z" fill="black"/>
</g>
<defs>
<filter id="filter0_dd_33_1276" x="0" y="0" width="190" height="89" filterUnits="userSpaceOnUse" color-interpolation-filters="sRGB">
<feFlood flood-opacity="0" result="BackgroundImageFix"/>
<feColorMatrix in="SourceAlpha" type="matrix" values="0 0 0 0 0 0 0 0 0 0 0 0 0 0 0 0 0 0 127 0" result="hardAlpha"/>
<feOffset dy="5"/>
<feGaussianBlur stdDeviation="7.5"/>
<feColorMatrix type="matrix" values="0 0 0 0 0.145098 0 0 0 0 0.172549 0 0 0 0 0.380392 0 0 0 0.15 0"/>
<feBlend mode="normal" in2="BackgroundImageFix" result="effect1_dropShadow_33_1276"/>
<feColorMatrix in="SourceAlpha" type="matrix" values="0 0 0 0 0 0 0 0 0 0 0 0 0 0 0 0 0 0 127 0" result="hardAlpha"/>
<feOffset dy="2"/>
<feGaussianBlur stdDeviation="2"/>
<feColorMatrix type="matrix" values="0 0 0 0 0.533333 0 0 0 0 0.564706 0 0 0 0 0.760784 0 0 0 0.2 0"/>
<feBlend mode="normal" in2="effect1_dropShadow_33_1276" result="effect2_dropShadow_33_1276"/>
<feBlend mode="normal" in="SourceGraphic" in2="effect2_dropShadow_33_1276" result="shape"/>
</filter>
</defs>
</svg>
